<?xml version="1.0" encoding="utf-8"?>
<!-- Generator: Adobe Illustrator 16.0.0, SVG Export Plug-In . SVG Version: 6.00 Build 0)  -->
<!DOCTYPE svg PUBLIC "-//W3C//DTD SVG 1.1//EN" "http://www.w3.org/Graphics/SVG/1.1/DTD/svg11.dtd">
<svg version="1.1" id="Слой_1" xmlns="http://www.w3.org/2000/svg" xmlns:xlink="http://www.w3.org/1999/xlink" x="0px" y="0px"
	 width="147.401px" height="70.866px" viewBox="0 0 147.401 70.866" enable-background="new 0 0 147.401 70.866"
	 xml:space="preserve">
<g>
	<g>
		<g>
			<path fill="#1D1D1B" d="M55.965,24.292c-1.702,0-3.169,0.622-4.376,1.854v-1.521h-4.561v16.583h4.561v-9.314
				c0-1.078,0.275-1.898,0.84-2.509c0.557-0.6,1.271-0.892,2.183-0.892c0.916,0,1.601,0.274,2.093,0.838
				c0.502,0.574,0.757,1.418,0.757,2.505v9.372h4.561v-10.42c0-1.955-0.539-3.539-1.603-4.71
				C59.345,24.892,57.846,24.292,55.965,24.292z"/>
			<path fill="#1D1D1B" d="M77.368,25.445c-1.342-0.765-2.855-1.153-4.502-1.153c-1.639,0-3.155,0.394-4.509,1.168
				c-1.355,0.774-2.427,1.835-3.183,3.147c-0.757,1.314-1.141,2.766-1.141,4.316c0,1.565,0.381,3.023,1.132,4.335
				c0.753,1.314,1.814,2.373,3.154,3.146c1.34,0.771,2.85,1.164,4.488,1.164c1.242,0,2.429-0.232,3.522-0.689
				c1.094-0.456,2.041-1.083,2.814-1.863c0.773-0.779,1.391-1.707,1.837-2.757c0.446-1.055,0.673-2.177,0.673-3.336
				c0-1.568-0.381-3.031-1.132-4.342C79.771,27.264,78.708,26.21,77.368,25.445z M72.809,28.376c1.253,0,2.257,0.428,3.065,1.31
				c0.822,0.895,1.221,1.953,1.221,3.237c0,1.308-0.385,2.375-1.176,3.264c-0.775,0.873-1.773,1.297-3.053,1.297
				c-1.233,0-2.229-0.433-3.044-1.324c-0.827-0.902-1.229-1.962-1.229-3.236c0-1.315,0.384-2.382,1.174-3.261
				C70.543,28.796,71.537,28.376,72.809,28.376z"/>
			<path fill="#1D1D1B" d="M89.81,25.355c-0.518,0.384-0.98,0.851-1.381,1.396v-2.126h-4.562v16.583h4.562v-6.437
				c0-1.875,0.443-3.311,1.32-4.266c0.877-0.956,2.027-1.421,3.514-1.421h0.693v-4.762h-0.795
				C91.878,24.322,90.751,24.668,89.81,25.355z"/>
			<path fill="#1D1D1B" d="M107.368,26.262c-1.366-1.309-2.99-1.971-4.844-1.971c-1,0-1.972,0.198-2.891,0.589
				c-0.91,0.388-1.736,0.944-2.455,1.654c-0.721,0.717-1.303,1.637-1.73,2.736c-0.422,1.092-0.637,2.308-0.637,3.616
				c0,1.316,0.217,2.543,0.645,3.646c0.432,1.113,1.02,2.04,1.746,2.753c0.722,0.709,1.549,1.267,2.459,1.658
				c0.916,0.395,1.88,0.596,2.863,0.596c1.885,0,3.509-0.69,4.844-2.053v1.721h4.559V18.648h-4.559V26.262z M106.229,29.625
				c0.805,0.849,1.195,1.916,1.195,3.262c0,1.366-0.391,2.448-1.196,3.308c-0.798,0.848-1.726,1.261-2.837,1.261
				c-1.123,0-2.051-0.406-2.838-1.241c-0.795-0.842-1.182-1.912-1.182-3.269c0-1.416,0.382-2.509,1.167-3.342
				c0.777-0.825,1.711-1.227,2.853-1.227C104.504,28.376,105.433,28.785,106.229,29.625z"/>
			<rect x="115.034" y="18.851" fill="#1D1D1B" width="4.82" height="4.359"/>
			<rect x="115.179" y="24.625" fill="#1D1D1B" width="4.561" height="16.583"/>
			<path fill="#1D1D1B" d="M134.89,35.309l-0.346,0.356c-0.576,0.596-1.17,1.056-1.766,1.368c-0.57,0.299-1.217,0.45-1.922,0.45
				c-1.223,0-2.201-0.425-2.992-1.3c-0.804-0.89-1.194-1.956-1.194-3.261c0-1.297,0.378-2.361,1.155-3.251
				c0.762-0.872,1.691-1.295,2.844-1.295c0.76,0,1.426,0.148,1.977,0.441c0.576,0.308,1.156,0.765,1.723,1.36l0.361,0.377
				l2.883-3.108l-0.303-0.334c-0.82-0.903-1.77-1.606-2.822-2.089c-1.055-0.486-2.33-0.732-3.791-0.732
				c-1.602,0-3.083,0.397-4.399,1.179c-1.315,0.78-2.353,1.843-3.086,3.158c-0.73,1.311-1.101,2.756-1.101,4.294
				c0,1.563,0.37,3.02,1.101,4.33c0.732,1.315,1.766,2.375,3.071,3.148c1.308,0.774,2.783,1.167,4.387,1.167
				c1.494,0,2.789-0.271,3.85-0.803c1.047-0.527,2.025-1.299,2.91-2.293l0.309-0.348L134.89,35.309z"/>
		</g>
		<g>
			<path fill="#A4ACB0" d="M50.775,50.17c-0.619-0.127-1.103-0.273-1.438-0.439c-0.312-0.152-0.52-0.313-0.62-0.477
				c-0.101-0.166-0.152-0.385-0.152-0.648c0-0.381,0.153-0.689,0.468-0.943c0.327-0.266,0.766-0.398,1.306-0.398
				c0.438,0,0.848,0.068,1.217,0.203c0.368,0.137,0.735,0.361,1.092,0.672l0.194,0.168l0.7-0.877l-0.191-0.154
				c-0.454-0.365-0.916-0.635-1.374-0.805c-0.46-0.168-1.003-0.254-1.614-0.254c-0.821,0-1.515,0.229-2.062,0.68
				c-0.561,0.463-0.846,1.049-0.846,1.742c0,0.709,0.249,1.275,0.737,1.688c0.469,0.395,1.206,0.689,2.253,0.904
				c0.597,0.122,1.064,0.264,1.389,0.42c0.3,0.144,0.502,0.298,0.602,0.461c0.1,0.163,0.151,0.378,0.151,0.639
				c0,0.413-0.161,0.743-0.491,1.008c-0.342,0.274-0.797,0.414-1.353,0.414c-0.561,0-1.061-0.092-1.485-0.272
				c-0.43-0.182-0.874-0.482-1.321-0.893l-0.187-0.172l-0.722,0.838l0.181,0.161c0.523,0.467,1.07,0.817,1.627,1.043
				c0.56,0.227,1.188,0.342,1.867,0.342c0.855,0,1.572-0.231,2.13-0.688c0.574-0.469,0.864-1.079,0.864-1.815
				c0-0.688-0.246-1.245-0.731-1.654C52.501,50.668,51.784,50.377,50.775,50.17z"/>
			<path fill="#A4ACB0" d="M64.953,47.559c-0.375-0.414-0.846-0.748-1.398-0.994c-1.102-0.488-2.489-0.494-3.606,0.002
				c-0.557,0.248-1.03,0.584-1.407,1.002c-0.375,0.412-0.672,0.896-0.884,1.439c-0.212,0.545-0.32,1.119-0.32,1.709
				c0,0.599,0.107,1.177,0.317,1.721c0.21,0.543,0.504,1.028,0.875,1.44c0.374,0.417,0.844,0.753,1.396,0.999
				c0.553,0.245,1.159,0.37,1.803,0.37c0.64,0,1.247-0.126,1.803-0.373c0.556-0.248,1.031-0.585,1.41-1.004
				c0.376-0.414,0.675-0.9,0.887-1.443c0.212-0.544,0.32-1.119,0.32-1.71c0-0.598-0.107-1.176-0.316-1.719
				C65.622,48.455,65.326,47.971,64.953,47.559z M65.021,50.717c0,0.643-0.141,1.235-0.419,1.763
				c-0.276,0.523-0.67,0.944-1.169,1.253c-0.998,0.613-2.363,0.614-3.364-0.003c-0.502-0.311-0.899-0.734-1.179-1.26
				c-0.282-0.529-0.424-1.119-0.424-1.753c0-0.641,0.141-1.234,0.419-1.762c0.276-0.523,0.668-0.943,1.167-1.252
				c0.497-0.307,1.061-0.463,1.677-0.463c0.463,0,0.904,0.092,1.311,0.275c0.408,0.184,0.76,0.434,1.046,0.74
				c0.288,0.309,0.517,0.682,0.684,1.107C64.936,49.791,65.021,50.246,65.021,50.717z"/>
			<polygon fill="#A4ACB0" points="71.333,46.332 70.229,46.332 70.229,55.103 76.194,55.103 76.194,54.045 71.333,54.045 			"/>
			<path fill="#A4ACB0" d="M86.068,51.416c0,0.907-0.225,1.604-0.668,2.07c-0.446,0.469-1.05,0.697-1.845,0.697
				c-0.813,0-1.427-0.239-1.877-0.729c-0.449-0.49-0.677-1.195-0.677-2.097v-5.026h-1.11v5.084c0,0.597,0.09,1.142,0.267,1.618
				c0.179,0.484,0.435,0.893,0.759,1.213c0.324,0.319,0.714,0.566,1.16,0.735c0.441,0.169,0.931,0.253,1.455,0.253
				c1.096,0,1.986-0.344,2.647-1.024c0.659-0.677,0.993-1.642,0.993-2.864v-5.015h-1.104V51.416z"/>
			<polygon fill="#A4ACB0" points="90.901,47.396 93.782,47.396 93.782,55.103 94.892,55.103 94.892,47.396 97.778,47.396 
				97.778,46.332 90.901,46.332 			"/>
			<rect x="101.713" y="46.332" fill="#A4ACB0" width="1.11" height="8.771"/>
			<path fill="#A4ACB0" d="M114.604,47.559c-0.375-0.414-0.846-0.748-1.398-0.994c-1.102-0.488-2.488-0.494-3.605,0.002
				c-0.557,0.248-1.029,0.584-1.406,1.002c-0.375,0.412-0.673,0.896-0.885,1.439c-0.212,0.545-0.319,1.119-0.319,1.709
				c0,0.599,0.106,1.177,0.316,1.721c0.21,0.543,0.505,1.028,0.874,1.44c0.375,0.417,0.844,0.753,1.396,0.999
				c0.553,0.245,1.16,0.37,1.803,0.37c0.641,0,1.248-0.126,1.805-0.373c0.557-0.248,1.029-0.585,1.408-1.004
				c0.377-0.414,0.676-0.9,0.889-1.443c0.211-0.544,0.318-1.119,0.318-1.71c0-0.598-0.105-1.176-0.316-1.719
				C115.274,48.455,114.978,47.971,114.604,47.559z M114.673,50.717c0,0.643-0.141,1.235-0.418,1.763
				c-0.277,0.523-0.67,0.944-1.17,1.253c-0.998,0.613-2.363,0.614-3.365-0.003c-0.502-0.311-0.898-0.734-1.178-1.26
				c-0.281-0.529-0.424-1.119-0.424-1.753c0-0.641,0.141-1.234,0.418-1.762c0.275-0.523,0.668-0.943,1.168-1.252
				c0.496-0.307,1.061-0.463,1.676-0.463c0.463,0,0.904,0.092,1.311,0.275c0.408,0.184,0.762,0.434,1.047,0.74
				c0.287,0.309,0.518,0.682,0.684,1.107C114.589,49.791,114.673,50.246,114.673,50.717z"/>
			<polygon fill="#A4ACB0" points="126.172,53.076 120.822,46.332 119.88,46.332 119.88,55.103 120.961,55.103 120.961,48.209 
				126.426,55.103 127.253,55.103 127.253,46.332 126.172,46.332 			"/>
			<path fill="#A4ACB0" d="M137.005,51.061c-0.465-0.393-1.182-0.684-2.189-0.891c-0.619-0.127-1.104-0.273-1.439-0.439
				c-0.311-0.152-0.52-0.313-0.619-0.477c-0.102-0.166-0.152-0.385-0.152-0.648c0-0.381,0.154-0.689,0.469-0.943
				c0.326-0.266,0.766-0.398,1.307-0.398c0.438,0,0.848,0.068,1.217,0.203c0.367,0.137,0.734,0.361,1.092,0.672l0.193,0.168
				l0.699-0.877l-0.189-0.154c-0.455-0.365-0.916-0.635-1.375-0.805c-0.459-0.168-1.002-0.254-1.615-0.254
				c-0.82,0-1.514,0.229-2.061,0.68c-0.561,0.463-0.846,1.049-0.846,1.742c0,0.709,0.248,1.275,0.736,1.688
				c0.471,0.395,1.207,0.689,2.254,0.904c0.598,0.122,1.064,0.264,1.389,0.42c0.301,0.144,0.502,0.298,0.602,0.461
				s0.15,0.378,0.15,0.639c0,0.413-0.16,0.743-0.49,1.008c-0.342,0.274-0.797,0.414-1.352,0.414c-0.561,0-1.061-0.092-1.486-0.272
				c-0.43-0.182-0.875-0.482-1.32-0.893l-0.188-0.172l-0.723,0.838l0.182,0.161c0.521,0.467,1.07,0.817,1.627,1.043
				c0.559,0.227,1.188,0.342,1.867,0.342c0.855,0,1.572-0.231,2.129-0.688c0.574-0.469,0.865-1.079,0.865-1.815
				C137.737,52.026,137.491,51.47,137.005,51.061z"/>
		</g>
	</g>
	<g>
		<g>
			<path fill="#E52228" d="M9.667,29.684v16.498h6.161v-5.714c0,0,11.471,7.165,16.161,10.095c-2.972,4.245-7.476,5.787-11.314,4.83
				c-1.931-0.67-3.686-1.776-4.847-3.574H9.667c0.399,0.998,0.926,1.957,1.579,2.849c1.716,2.56,4.12,4.461,7.053,5.558
				c1.203,0.5,2.411,0.815,3.547,0.896c0.339,0.025,0.678,0.029,1.016,0.033c0.129,0.004,0.254,0.012,0.383,0.012
				c0.026,0,0.055-0.002,0.081-0.002c0.367-0.004,0.735-0.023,1.102-0.055c5.428-0.418,10.321-3.367,12.593-7.678l-0.001-7.027
				L9.667,29.684z"/>
			<path fill="#E52228" d="M30.845,30.369c0,0-11.433-7.14-16.124-10.07c2.971-4.243,7.479-5.786,11.317-4.83
				c1.909,0.663,3.646,1.755,4.807,3.519h6.175c-0.396-0.978-0.916-1.918-1.558-2.792c-1.715-2.561-4.118-4.461-7.05-5.558
				c-1.203-0.5-2.41-0.815-3.546-0.897c-0.337-0.025-0.676-0.028-1.014-0.032c-0.129-0.003-0.254-0.012-0.382-0.012
				c-0.029,0-0.056,0.002-0.082,0.003c-0.369,0.002-0.736,0.022-1.104,0.054c-5.447,0.419-10.355,3.385-12.617,7.718v6.972
				l27.353,16.721V24.624h-6.175V30.369z"/>
		</g>
	</g>
</g>
</svg>
